<?xml version="1.0" encoding="utf-8"?>
<!-- Generator: Adobe Illustrator 22.1.0, SVG Export Plug-In . SVG Version: 6.00 Build 0)  -->
<svg version="1.1" id="Layer_1" xmlns="http://www.w3.org/2000/svg" xmlns:xlink="http://www.w3.org/1999/xlink" x="0px" y="0px"
	 viewBox="0 0 612 792" style="enable-background:new 0 0 612 792;" xml:space="preserve">
<style type="text/css">
	.st0{fill:#FFFFFF;stroke:#000000;stroke-miterlimit:10;}
</style>
<g id="contact">
	<circle class="st0" cx="184" cy="258" r="55.3"/>
	<path d="M206.7,264.9c-9.6,4.8-20.9,4.4-28.9-1.9c-8.1-6.5-10.6-17.3-7.1-27.4l-9.8-8l-12.5,14.5c-2.9,3.3-2.3,8.4,1.2,11.2
		l43.3,34.4c3.6,2.8,8.9,2.4,11.7-0.9l12-13.9L206.7,264.9z"/>
</g>
<g id="find_store">
	<circle class="st0" cx="395" cy="371.9" r="55.3"/>
	<path d="M395,329.3c-20,0-36.3,16.2-36.3,36.3c0,4.4,0.8,8.5,2.2,12.4c-0.1,1.5-0.2,2.4-0.2,2.4c0.5,0.2,0.9,0.3,1.4,0.5
		c5.2,11.2,15.9,19.2,28.6,20.8c6.1,10,4,18.8,4,18.8L403,401c16.2-3.7,28.3-18.1,28.3-35.4C431.3,345.6,415,329.3,395,329.3z
		 M395,394.9c-16.2,0-29.3-13.1-29.3-29.3s13.1-29.3,29.3-29.3s29.3,13.1,29.3,29.3S411.2,394.9,395,394.9z"/>
	<path d="M395,342.1c-13,0-23.5,10.5-23.5,23.5s10.5,23.5,23.5,23.5s23.5-10.5,23.5-23.5S408,342.1,395,342.1z M395,385.6
		c-11,0-20-9-20-20c0-11,9-20,20-20s20,9,20,20C415,376.7,406,385.6,395,385.6z"/>
</g>
</svg>
